<?xml version="1.0" encoding="UTF-8" standalone="no"?>
<svg
   width="234.15282mm"
   height="114.5573mm"
   viewBox="-61 -34 234.15282 114.5573"
   version="1.1"
   id="svg1"
   sodipodi:docname="obmama_radix.svg"
   inkscape:version="1.4 (86a8ad7, 2024-10-11)"
   xmlns:inkscape="http://www.inkscape.org/namespaces/inkscape"
   xmlns:sodipodi="http://sodipodi.sourceforge.net/DTD/sodipodi-0.dtd"
   xmlns="http://www.w3.org/2000/svg"
   xmlns:svg="http://www.w3.org/2000/svg"
   xmlns:rdf="http://www.w3.org/1999/02/22-rdf-syntax-ns#"
   xmlns:cc="http://creativecommons.org/ns#"
   xmlns:dc="http://purl.org/dc/elements/1.1/">
  <defs
     id="defs1" />
  <sodipodi:namedview
     id="namedview1"
     pagecolor="#ffffff"
     bordercolor="#000000"
     borderopacity="0.25"
     inkscape:showpageshadow="2"
     inkscape:pageopacity="0.0"
     inkscape:pagecheckerboard="0"
     inkscape:deskcolor="#d1d1d1"
     inkscape:document-units="mm"
     showgrid="true"
     inkscape:zoom="0.82479951"
     inkscape:cx="391.00411"
     inkscape:cy="294.61705"
     inkscape:window-width="1920"
     inkscape:window-height="991"
     inkscape:window-x="-9"
     inkscape:window-y="-9"
     inkscape:window-maximized="1"
     inkscape:current-layer="svg1">
    <inkscape:grid
       id="grid1"
       units="mm"
       originx="111.65283"
       originy="-97.944999"
       spacingx="0.26458333"
       spacingy="0.26458332"
       empcolor="#0099e5"
       empopacity="0.30196078"
       color="#0099e5"
       opacity="0.14901961"
       empspacing="5"
       enabled="true"
       visible="true" />
  </sodipodi:namedview>
  <title
     id="title1">OpenSCAD Model</title>
  <g
     id="g2"
     transform="translate(111.65282,-97.945)">
    <g
       id="g1">
      <path
         d="m 60.3128,178.25 0.0625,-0.006 0.0621,-0.01 0.0613,-0.0137 0.0603,-0.0175 0.0591,-0.0213 0.0577,-0.025 0.056,-0.0285 0.054,-0.032 0.052,-0.0353 0.0496,-0.0385 0.0471,-0.0415 0.0445,-0.0445 0.0415,-0.0471 0.0385,-0.0496 0.0353,-0.052 0.032,-0.054 0.0285,-0.056 0.025,-0.0577 0.0212,-0.0591 0.0176,-0.0603 0.0137,-0.0613 0.0098,-0.0621 0.0059,-0.0625 0.002,-0.0628 v -74.1656 l -0.002,-0.0628 -0.0059,-0.0625 -0.0098,-0.0621 -0.0137,-0.0613 -0.0176,-0.0603 -0.0212,-0.0591 -0.025,-0.0577 -0.0285,-0.056 -0.032,-0.054 -0.0353,-0.052 -0.0385,-0.0496 -0.0415,-0.0471 -0.0445,-0.0445 -0.0471,-0.0415 -0.0496,-0.0385 -0.052,-0.0353 -0.054,-0.032 -0.056,-0.0285 -0.0577,-0.025 -0.0591,-0.0213 -0.0603,-0.0175 -0.0613,-0.0137 -0.0621,-0.01 -0.0625,-0.006 -0.0628,-0.002 H 38.3328 V 87.25 l -0.002,-0.0628 -0.0059,-0.0625 -0.0098,-0.0621 -0.0137,-0.0613 -0.0175,-0.0603 -0.0213,-0.0591 -0.025,-0.0577 -0.0285,-0.056 -0.032,-0.054 -0.0353,-0.052 -0.0385,-0.0496 -0.0415,-0.0472 -0.0445,-0.0444 -0.0471,-0.0415 -0.0496,-0.0385 -0.052,-0.0353 -0.054,-0.032 -0.056,-0.0285 -0.0577,-0.025 -0.0591,-0.0213 -0.0603,-0.0175 -0.0613,-0.0137 -0.0621,-0.0098 -0.0625,-0.0059 -0.0628,-0.002 h -74.1656 l -0.0628,0.002 -0.0625,0.0059 -0.0621,0.0098 -0.0613,0.0137 -0.0603,0.0175 -0.0591,0.0213 -0.0577,0.025 -0.056,0.0285 -0.054,0.032 -0.052,0.0353 -0.0496,0.0385 -0.0471,0.0415 -0.0445,0.0444 -0.0415,0.0472 -0.0385,0.0496 -0.0353,0.052 -0.032,0.054 -0.0285,0.056 -0.025,0.0577 -0.0213,0.0591 -0.0175,0.0603 -0.0137,0.0613 -0.0098,0.0621 -0.0059,0.0625 -0.002,0.0628 v 14.8361 H -59.75 l -0.0628,0.002 -0.0625,0.006 -0.0621,0.01 -0.0613,0.0137 -0.0603,0.0175 -0.0591,0.0213 -0.0577,0.025 -0.056,0.0285 -0.054,0.032 -0.052,0.0353 -0.0496,0.0385 -0.0471,0.0415 -0.0445,0.0445 -0.0415,0.0471 -0.0385,0.0496 -0.0353,0.052 -0.032,0.054 -0.0285,0.056 -0.025,0.0577 -0.0212,0.0591 -0.0176,0.0603 -0.0137,0.0613 -0.0098,0.0621 -0.0059,0.0625 -0.002,0.0628 v 74.1656 l 0.002,0.0628 0.0059,0.0625 0.0098,0.0621 0.0137,0.0613 0.0176,0.0603 0.0212,0.0591 0.025,0.0577 0.0285,0.056 0.032,0.054 0.0353,0.052 0.0385,0.0496 0.0415,0.0471 0.0445,0.0445 0.0471,0.0415 0.0496,0.0385 0.052,0.0353 0.054,0.032 0.056,0.0285 0.0577,0.025 0.0591,0.0213 0.0603,0.0175 0.0613,0.0137 0.0621,0.01 0.0625,0.006 0.0628,0.002 h 120 z M -12.25,107.6692 v -8.999997 h 25 v 8.999997 z m 23.629,16.01981 v -1.86625 h 1.9532 v 1.86625 z m -40.8495,14.39249 -1.0749,-0.179 -0.9921,-0.2984 -0.9094,-0.4177 -0.8168,-0.53 -0.7144,-0.635 -0.612,-0.7402 -0.5096,-0.8453 -0.401,-0.9375 -0.2866,-1.0169 -0.1719,-1.0962 -0.0572,-1.1755 0.1247,-1.75561 0.3743,-1.54543 0.6239,-1.33522 0.8734,-1.12501 1.0992,-0.89243 1.3014,-0.63745 1.5034,-0.38248 1.7054,-0.12748 1.2098,0.0536 1.0904,0.16071 0.9711,0.26785 0.8517,0.37498 0.7467,0.493 0.6557,0.62184 0.5649,0.75072 0.474,0.87956 -1.9747,0.58592 -0.3564,-0.60695 -0.418,-0.51876 -0.4798,-0.43059 -0.5415,-0.34241 -0.6072,-0.26111 -0.6771,-0.18649 -0.747,-0.11191 -0.8168,-0.0373 -1.2457,0.10002 -1.0898,0.30009 -0.9338,0.50016 -0.7778,0.70021 -0.6123,0.88186 -0.4374,1.04529 -0.2625,1.20871 -0.0875,1.37213 0.0929,1.3722 0.2787,1.2196 0.4645,1.067 0.6503,0.9145 0.8145,0.7334 0.9569,0.5238 1.0993,0.3143 1.2417,0.1048 0.7361,-0.0285 0.7109,-0.0854 0.6859,-0.1424 0.6608,-0.1994 0.6175,-0.2482 0.5557,-0.2888 0.494,-0.3296 0.4323,-0.3702 v -2.756 h -4.5678 v -1.736 h 6.4774 v 5.2731 l -0.6418,0.5836 -0.7104,0.5137 -0.7788,0.4438 -0.8473,0.374 -0.9002,0.2966 -0.9375,0.2119 -0.9748,0.1272 -1.012,0.0424 z m 47.8471,0.001 -0.7195,-0.1749 -0.6096,-0.2916 -0.4998,-0.4083 -0.3893,-0.5099 -0.278,-0.5967 -0.1667,-0.6836 -0.0556,-0.7703 0.0749,-0.8585 0.2248,-0.7527 0.3746,-0.647 0.5245,-0.5411 0.6914,-0.4313 0.8751,-0.3173 1.0589,-0.2035 1.2426,-0.0895 2.6367,-0.0434 v -0.64011 l -0.038,-0.66522 -0.1139,-0.5635 -0.1899,-0.46179 -0.2659,-0.36006 -0.3472,-0.27061 -0.434,-0.1933 -0.5208,-0.11598 -0.6076,-0.0387 -0.6116,0.0278 -0.5222,0.0834 -0.4327,0.13905 -0.3431,0.19466 -0.2686,0.25563 -0.2088,0.3221 -0.1492,0.38855 -0.0896,0.455 -2.0397,-0.18448 0.4815,-1.38606 0.9453,-0.99005 1.4091,-0.59403 1.8729,-0.19801 1.0383,0.0634 0.9012,0.19023 0.7642,0.31706 0.6272,0.44387 0.489,0.56382 0.3492,0.67705 0.2096,0.7903 0.0698,0.90355 v 5.05615 l 0.0143,0.4072 0.0427,0.3537 0.0712,0.3001 0.0997,0.2465 0.1397,0.1922 0.1913,0.1373 0.2428,0.0824 0.2943,0.0275 0.1458,-0.005 0.1553,-0.0142 0.1647,-0.0238 0.1742,-0.0332 v 1.2152 l -0.3709,0.0759 -0.375,0.0543 -0.379,0.0325 -0.3831,0.0109 -0.5056,-0.0356 -0.4316,-0.1068 -0.3578,-0.178 -0.2838,-0.2492 -0.2201,-0.3252 -0.1664,-0.4058 -0.1129,-0.4866 -0.0594,-0.5672 h -0.0649 l -0.3896,0.6235 -0.4201,0.5252 -0.4506,0.4269 -0.4812,0.3285 -0.5232,0.2445 -0.5767,0.1746 -0.6304,0.1047 -0.6839,0.035 z m 1.7964,-1.4368 0.4923,-0.0916 0.4624,-0.1526 0.4326,-0.2136 0.3957,-0.2669 0.3516,-0.3123 0.3076,-0.3577 0.2635,-0.4031 0.2113,-0.4289 0.1509,-0.435 0.0905,-0.4412 0.0302,-0.4472 V 132.13 l -2.1375,0.0433 -0.6473,0.0258 -0.5639,0.0557 -0.4805,0.0855 -0.3971,0.1153 -0.3346,0.1478 -0.2932,0.1831 -0.252,0.2183 -0.2106,0.2537 -0.1661,0.2922 -0.1186,0.3343 -0.0712,0.3763 -0.0237,0.4184 0.0322,0.4503 0.0966,0.3961 0.161,0.3418 0.2255,0.2875 0.2852,0.2279 0.3401,0.1627 0.395,0.0977 0.4499,0.0325 z m -38.8864,1.2782 v -9.00543 l -0.0041,-0.63475 -0.0122,-0.66729 -0.0203,-0.69983 -0.0284,-0.73236 h 1.8445 l 0.0379,0.89846 0.0271,0.69913 0.0163,0.49976 0.0054,0.3004 h 0.0434 l 0.2421,-0.6944 0.2597,-0.57504 0.2773,-0.45568 0.295,-0.33632 0.335,-0.24206 0.3974,-0.1729 0.4598,-0.10374 0.5222,-0.0346 0.1959,0.007 0.1974,0.0203 0.1987,0.0339 0.2001,0.0475 v 1.79023 l -0.2116,-0.0474 -0.2441,-0.0339 -0.2767,-0.0203 -0.3092,-0.007 -0.5716,0.0654 -0.4998,0.19632 -0.4279,0.3272 -0.356,0.45808 -0.2801,0.58008 -0.2001,0.69336 -0.12,0.80661 -0.04,0.9199 v 6.1194 z m 9.3485805,0.1586 -0.7194805,-0.1749 -0.6096,-0.2916 -0.4998,-0.4083 -0.3892,-0.5099 -0.278,-0.5967 -0.1668,-0.6836 -0.0556,-0.7703 0.0749,-0.8585 0.2248,-0.7527 0.3746,-0.647 0.5245,-0.5411 0.6914,-0.4313 0.8750805,-0.3173 1.0589,-0.2035 1.24267,-0.0895 2.63663,-0.0434 v -0.64011 l -0.03798,-0.66522 -0.11394,-0.5635 -0.18989,-0.46179 -0.26587,-0.36006 -0.34717,-0.27061 -0.43399,-0.1933 -0.5208,-0.11598 -0.60763,-0.0387 -0.61165,0.0278 -0.52216,0.0834 -0.43265,0.13905 -0.34315,0.19466 -0.26856,0.25563 -0.20887,0.3221 -0.1492,0.38855 -0.08953,0.455 -2.0396405,-0.18448 0.4814,-1.38606 0.9453,-0.99005 1.4091005,-0.59403 1.87297,-0.19801 1.03821,0.0634 0.90123,0.19023 0.76422,0.31706 0.62721,0.44387 0.48895,0.56382 0.34925,0.67705 0.20955,0.7903 0.06985,0.90355 v 5.05615 l 0.01424,0.4072 0.04272,0.3537 0.0712,0.3001 0.09969,0.2465 0.13975,0.1922 0.19129,0.1373 0.24279,0.0824 0.29433,0.0275 0.14577,-0.005 0.15527,-0.0142 0.16472996,-0.0238 0.17423,-0.0332 v 1.2152 l -0.37090996,0.0759 -0.37497,0.0543 -0.37903,0.0325 -0.3831,0.0109 -0.5056,-0.0356 -0.43167,-0.1068 -0.35776,-0.178 -0.28384,-0.2492 -0.22002,-0.3252 -0.16646,-0.4058 -0.11291,-0.4866 -0.05933,-0.5672 h -0.06497 l -0.38957,0.6235 -0.42011,0.5252 -0.45062,0.4269 -0.48114,0.3285 -0.52318,0.2445 -0.57678,0.1746 -0.63034,0.1047 -0.68393,0.035 z m 1.7964,-1.4368 0.49228,-0.0916 0.46245,-0.1526 0.4326,-0.2136 0.39572,-0.2669 0.35164,-0.3123 0.30756,-0.3577 0.26347,-0.4031 0.21126,-0.4289 0.15091,-0.435 0.09053,-0.4412 0.03018,-0.4472 V 132.13 l -2.13744,0.0433 -0.64732,0.0258 -0.56392,0.0557 -0.48048,0.0855 -0.39707,0.1153 -0.33461,0.1478 -0.29327,0.1831 -0.25194,0.2183 -0.21059,0.2537 -0.16614,0.2922 -0.1186,0.3343 -0.0712,0.3763 -0.0237,0.4184 0.0322,0.4503 0.096608,0.3961 0.1611,0.3418 0.22542,0.2875 0.28516,0.2279 0.34009,0.1627 0.39502,0.0977 0.44998,0.0325 z m 11.45174,1.3978 -1.01278,-0.2919 -0.86698,-0.4865 -0.72121,-0.6812 -0.56721604,-0.8677 -0.4051517,-1.0459 -0.2430723,-1.2244 -0.081024,-1.4026 0.081359,-1.3933 0.2440953,-1.21753 0.4068607,-1.04194 0.56957904,-0.8663 0.72157,-0.68117 0.8626,-0.48655 1.00363,-0.29193 1.14468,-0.0973 0.86225,0.0583 0.7856,0.17496 0.70895,0.29159 0.63232,0.40825 0.53881,0.51056 0.42824,0.59876 0.31768,0.68693 0.20711,0.7751 -2.00719,0.15184 -0.1051,-0.46315 -0.16342,-0.41296 -0.22177,-0.3628 -0.28011,-0.3126 -0.34175,-0.25159 -0.40686,-0.17969 -0.47194,-0.10782 -0.53705,-0.0359 -0.72226,0.0644 -0.61511,0.19329 -0.50793,0.32215 -0.40079,0.45101 -0.30379,0.60351 -0.21701,0.7798 -0.13019,0.95608 -0.04341,1.1324 0.04612,1.0959 0.13833,0.944 0.23055,0.7921 0.32277,0.6402 0.41574,0.4936 0.5093,0.3526 0.60286,0.2116 0.69642,0.0705 0.49943,-0.0352 0.45673,-0.1058 0.414,-0.1763 0.37127,-0.2468 0.31635,-0.3202 0.24922,-0.396 0.18207,-0.472 0.11493,-0.5479 1.97472,0.1301 -0.17563,0.8036 -0.29905,0.7182 -0.42247,0.6327 -0.54589,0.5473 -0.64829,0.4414 -0.72967,0.3153 -0.81105,0.1892 -0.89243,0.0631 z m 27.4111795,0.0523 -0.9077,-0.1353 -0.7822,-0.2255 -0.6568,-0.3156 -0.5422,-0.4113 -0.4384,-0.5123 -0.3346,-0.6134 -0.2309,-0.7144 1.7253,-0.3364 0.1579,0.4404 0.2244,0.3774 0.2909,0.3144 0.3573,0.2513 0.4286,0.1922 0.5046,0.1373 0.5805,0.0824 0.6564,0.0274 0.6934,-0.0284 0.5937,-0.0855 0.4941,-0.1424 0.3943,-0.1993 0.3014,-0.2564 0.2153,-0.3133 0.1292,-0.3703 0.0431,-0.4272 -0.0299,-0.3309 -0.0895,-0.2984 -0.1492,-0.2658 -0.2089,-0.2333 -0.2753,-0.2075 -0.3485,-0.1885 -0.4218,-0.1696 -0.495,-0.1505 -1.3997,-0.3688 -0.7802,-0.216 -0.6588,-0.214 -0.5374,-0.2119 -0.4161,-0.2098 -0.336,-0.2201 -0.2974,-0.2424 -0.2587,-0.2648 -0.22,-0.2873 -0.1757,-0.3153 -0.1254,-0.34924 -0.0753,-0.38314 -0.0251,-0.41706 0.0716,-0.75506 0.2146,-0.65946 0.3577,-0.56383 0.5008,-0.4682 0.6378,-0.36792 0.7687,-0.2628 0.8995,-0.15768 1.0304,-0.0526 0.9213,0.0427 0.8215,0.12815 0.7218,0.21361 0.6222,0.29904 0.5198,0.3933 0.4147,0.49638 0.3095,0.59946 0.2045,0.70254 -1.7576,0.21712 -0.1157,-0.36792 -0.1841,-0.32245 -0.2526,-0.27699 -0.3211,-0.23152 -0.3855,-0.18277 -0.4459,-0.13056 -0.5062,-0.0783 -0.5666,-0.0261 -0.6184,0.0251 -0.5317,0.0753 -0.4449,0.12544 -0.3581,0.17563 -0.2753,0.2265 -0.1966,0.27803 -0.118,0.32956 -0.0393,0.38112 0.0162,0.23868 0.0488,0.217 0.0814,0.19532 0.1139,0.17363 0.1458,0.15663 0.177,0.14437 0.2082,0.1322 0.2394,0.1201 0.3255,0.1247 0.4666,0.1465 0.6077,0.1682 0.7487,0.1899 0.7215,0.1915 0.613,0.1841 0.5045,0.1767 0.396,0.1692 0.3238,0.1699 0.2878,0.1787 0.2519,0.1875 0.216,0.1963 0.1868,0.2085 0.1645,0.2241 0.142,0.2397 0.1197,0.2554 0.095,0.2722 0.0678,0.2906 0.0407,0.3089 0.0136,0.3271 -0.0783,0.7826 -0.235,0.6876 -0.3917,0.5927 -0.5483,0.4978 -0.6893,0.3939 -0.8147,0.2814 -0.9402,0.1689 -1.0657,0.0563 z M 11.379,137.9239 v -11.73966 h 1.9532 v 11.73966 z m 15.6464,8.1283 v -0.2576 l 2.7959,-3.6978 h 2.667 v 0.3736 l -4.2518,3.5818 z m -0.9591,15.6626 -0.8544,-0.2078 -0.724,-0.3463 -0.5935,-0.4848 -0.4621,-0.6055 -0.3302,-0.7086 -0.198,-0.8117 -0.0661,-0.9147 0.089,-1.0195 0.2669,-0.8939 0.4449,-0.7682 0.6229,-0.6427 0.8209,-0.5121 1.0392,-0.3769 1.2575,-0.2416 1.4756,-0.1063 3.131,-0.0514 v -0.7602 l -0.045,-0.79 -0.1354,-0.6691 -0.2255,-0.5484 -0.3157,-0.4276 -0.4122,-0.3213 -0.5154,-0.2296 -0.6185,-0.1377 -0.7215,-0.0459 -0.7263,0.033 -0.6201,0.0991 -0.5138,0.1651 -0.4075,0.2312 -0.3189,0.3035 -0.248,0.3825 -0.1772,0.4614 -0.1063,0.5404 -2.4221,-0.2191 0.5717,-1.646 1.1225,-1.1757 1.6733,-0.7054 2.2242,-0.2351 1.2329,0.0753 1.0702,0.2259 0.9075,0.3765 0.7448,0.5271 0.5806,0.6695 0.4148,0.804 0.2488,0.9385 0.0829,1.073 v 6.0041 l 0.017,0.4836 0.0507,0.42 0.0845,0.3564 0.1184,0.2927 0.166,0.2283 0.2271,0.163 0.2883,0.0979 0.3495,0.0326 0.1732,-0.006 0.1843,-0.0169 0.1957,-0.0282 0.2068,-0.0395 v 1.4431 l -0.4404,0.0901 -0.4453,0.0645 -0.4501,0.0386 -0.4549,0.0129 -0.6004,-0.0423 -0.5126,-0.1268 -0.4249,-0.2114 -0.337,-0.2959 -0.2613,-0.3861 -0.1977,-0.482 -0.134,-0.5777 -0.0705,-0.6736 h -0.0772 l -0.4626,0.7404 -0.4988,0.6237 -0.5352,0.5069 -0.5713,0.3901 -0.6213,0.2903 -0.6849,0.2074 -0.7485,0.1244 -0.8122,0.0414 z m 2.1332,-1.7063 0.5846,-0.1087 0.5491,-0.1812 0.5137,-0.2537 0.4699,-0.3169 0.4176,-0.3709 0.3653,-0.4247 0.3128,-0.4788 0.2509,-0.5093 0.1792,-0.5166 0.1075,-0.5238 0.0358,-0.5311 v -1.1467 l -2.5382,0.0515 -0.7687,0.0306 -0.6696,0.0661 -0.5706,0.1015 -0.4715,0.137 -0.3974,0.1755 -0.3482,0.2174 -0.2992,0.2593 -0.2501,0.3012 -0.1972,0.347 -0.1409,0.397 -0.0845,0.4469 -0.0282,0.4969 0.0382,0.5347 0.1148,0.4703 0.1912,0.4059 0.2678,0.3414 0.3386,0.2706 0.4038,0.1933 0.4691,0.1159 0.5344,0.0387 z m -61.9192,1.5179 v -10.9645 l -0.0048,-1.0993 -0.0145,-0.8624 -0.0241,-0.6257 -0.0337,-0.389 h 2.1903 l 0.0063,0.0459 0.0064,0.0733 0.0065,0.1007 0.0064,0.128 0.0069,0.147 0.0077,0.1575 0.0084,0.1679 0.0093,0.1784 0.0101,0.2242 0.0109,0.3055 0.0116,0.3869 0.0124,0.4683 h 0.0388 l 0.3873,-0.6844 0.4147,-0.5717 0.4421,-0.459 0.4695,-0.3462 0.5098,-0.2537 0.5628,-0.1812 0.616,-0.1088 0.6691,-0.0362 0.7509,0.0395 0.668,0.1183 0.585,0.1973 0.502,0.2763 0.4257,0.3623 0.3555,0.4557 0.2855,0.5492 0.2155,0.6426 h 0.0387 l 0.3797,-0.653 0.4175,-0.5548 0.4553,-0.4566 0.4932,-0.3583 0.5392,-0.2706 0.593,-0.1933 0.6471,-0.116 0.701,-0.0386 0.9844,0.0717 0.8403,0.215 0.6962,0.3583 0.552,0.5016 0.4199,0.6652 0.3,0.8487 0.1799,1.0324 0.06,1.2159 v 9.2897 h -2.2933 v -8.8386 l -0.0346,-0.9333 -0.1039,-0.7771 -0.1731,-0.6209 -0.2424,-0.4645 -0.3326,-0.3383 -0.4437,-0.2416 -0.5548,-0.1449 -0.666,-0.0484 -0.7179,0.0705 -0.6334,0.2114 -0.5488,0.3523 -0.4642,0.4933 -0.3692,0.6228 -0.2637,0.7413 -0.1582,0.8596 -0.0527,0.978 v 8.0784 h -2.2935 v -8.8386 l -0.0346,-0.9333 -0.1039,-0.7771 -0.1732,-0.6209 -0.2424,-0.4645 -0.3325,-0.3383 -0.4438,-0.2416 -0.5548,-0.1449 -0.666,-0.0484 -0.7021,0.0709 -0.6249,0.2126 -0.5476,0.3544 -0.4703,0.4961 -0.3777,0.6248 -0.2697,0.7408 -0.1619,0.8568 -0.0539,0.9728 v 8.0784 z m 35.7992005,0 v -10.9645 l -0.00482,-1.0993 -0.01447,-0.8624 -0.02409,-0.6257 -0.03375,-0.389 h 2.19032 l 0.00638,0.0459 0.00639,0.0733 0.00642,0.1007 0.00646,0.128 0.00685,0.147 0.00767,0.1575 0.00849,0.1679 0.00928,0.1784 0.01008,0.2242 0.01087,0.3055 0.01165,0.3869 0.01244,0.4683 h 0.03876 l 0.38733,-0.6844 0.4147,-0.5717 0.44209,-0.459 0.46948,-0.3462 0.50974,-0.2537 0.56287,-0.1812 0.61598,-0.1088 0.66913,-0.0362 0.75091,0.0395 0.66796,0.1183 0.5849795,0.1973 0.5021,0.2763 0.4256,0.3623 0.3555,0.4557 0.2855,0.5492 0.2155,0.6426 h 0.0387 l 0.3797,-0.653 0.4175,-0.5548 0.4553,-0.4566 0.4933,-0.3583 0.5391,-0.2706 0.5931,-0.1933 0.647,-0.116 0.701,-0.0386 0.9844,0.0717 0.8403,0.215 0.6962,0.3583 0.552,0.5016 0.4199,0.6652 0.3,0.8487 0.18,1.0324 0.06,1.2159 v 9.2897 H 18.198 v -8.8386 l -0.0347,-0.9333 -0.1039,-0.7771 -0.1731,-0.6209 -0.2424,-0.4645 -0.3326,-0.3383 -0.4437,-0.2416 -0.5548,-0.1449 -0.666,-0.0484 -0.7179,0.0705 -0.6334,0.2114 -0.5488,0.3523 -0.4642,0.4933 -0.3692,0.6228 -0.2637,0.7413 -0.1582,0.8596 -0.0527,0.978 v 8.0784 h -2.29351 v -8.8386 l -0.03462,-0.9333 -0.10389,-0.7771 -0.1731395,-0.6209 -0.24238,-0.4645 -0.33258,-0.3383 -0.44371,-0.2416 -0.55484,-0.1449 -0.66597,-0.0484 -0.70217,0.0709 -0.62488,0.2126 -0.5476,0.3544 -0.47033,0.4961 -0.37764,0.6248 -0.26974,0.7408 -0.16183,0.8568 -0.05396,0.9728 v 8.0784 z m -11.81244,0.1884 -0.8543605,-0.2078 -0.724,-0.3463 -0.5935,-0.4848 -0.4622,-0.6055 -0.3301,-0.7086 -0.1981,-0.8117 -0.066,-0.9147 0.089,-1.0195 0.2669,-0.8939 0.4449,-0.7682 0.6229,-0.6427 0.8209,-0.5121 1.0392305,-0.3769 1.25743,-0.2416 1.47567,-0.1063 3.13101,-0.0514 v -0.7602 l -0.04511,-0.79 -0.1353,-0.6691 -0.22551,-0.5484 -0.3157,-0.4276 -0.41226,-0.3213 -0.51537,-0.2296 -0.61845,-0.1377 -0.72158,-0.0459 -0.72633,0.033 -0.62004,0.0991 -0.51378,0.1651 -0.40749,0.2312 -0.31892,0.3035 -0.24805,0.3825 -0.17715,0.4614 -0.1063,0.5404 -2.4221005,-0.2191 0.5717,-1.646 1.1225,-1.1757 1.6733305,-0.7054 2.22413,-0.2351 1.23288,0.0753 1.07021,0.2259 0.90751,0.3765 0.74482,0.5271 0.58062,0.6695 0.41474,0.804 0.24884,0.9385 0.08294,1.073 v 6.0041 l 0.01693,0.4836 0.05072,0.42 0.08455,0.3564 0.11837,0.2927 0.16596,0.2283 0.22715996,0.163 0.288311,0.0979 0.349502,0.0326 0.173126,-0.006 0.1843722,-0.0169 0.1956028,-0.0282 0.206894,-0.0395 v 1.4431 l -0.4404454,0.0901 -0.4452816,0.0645 -0.450089,0.0386 -0.45492196,0.0129 -0.60041,-0.0423 -0.51262,-0.1268 -0.42483,-0.2114 -0.33707,-0.2959 -0.26126,-0.3861 -0.19768,-0.482 -0.13406,-0.5777 -0.07046,-0.6736 h -0.07715 l -0.46262,0.7404 -0.49887,0.6237 -0.53511,0.5069 -0.57137,0.3901 -0.62127,0.2903 -0.68492,0.2074 -0.74854,0.1244 -0.81216,0.0414 z m 2.13322,-1.7063 0.58458,-0.1087 0.54915,-0.1812 0.5137,-0.2537 0.46993,-0.3169 0.41757,-0.3709 0.36522,-0.4247 0.3129,-0.4788 0.25087,-0.5093 0.17918,-0.5166 0.10751,-0.5238 0.03585,-0.5311 v -1.1467 l -2.53821,0.0515 -0.76871,0.0306 -0.66963,0.0661 -0.57059,0.1015 -0.47152,0.137 -0.39734,0.1755 -0.34827,0.2174 -0.29917,0.2593 -0.2501005,0.3012 -0.1972,0.347 -0.1409,0.397 -0.0846,0.4469 -0.0281,0.4969 0.0382,0.5347 0.1148,0.4703 0.1912,0.4059 0.2677005,0.3414 0.33867,0.2706 0.40385,0.1933 0.46911,0.1159 0.53433,0.0387 z"
         stroke="#000000"
         fill="lightgray"
         stroke-width="0.5"
         id="path1"
         style="fill:#ffffff" />
      <path
         d="m -106.90269,168.68213 0.6806,-0.1521 3.1973,-0.9289 3.132698,-1.1278 3.0557,-1.3224 2.9666,-1.5116 2.8659,-1.6948 2.7538,-1.8715 2.6309,-2.0407 2.4975,-2.2019 2.3543,-2.3543 2.2019,-2.4975 2.0407,-2.6309 1.8715,-2.7538 1.6948,-2.8659 1.5116,-2.9666 1.3224,-3.0557 1.1278,-3.1327 0.9289,-3.1973 0.7263,-3.2494 0.5209,-3.28855 0.3133,-3.31475 0.1046,-3.3279 -0.1046,-3.3279 -0.3133,-3.31475 -0.5209,-3.28855 -0.7263,-3.2494 -0.9289,-3.19731 -1.1278,-3.1327 -1.3224,-3.0557 -1.5116,-2.9666 -1.6948,-2.8659 -1.8715,-2.7538 -2.0407,-2.6309 -2.2019,-2.4975 -2.3543,-2.3543 -2.4975,-2.201897 -2.6309,-2.0407 -2.7538,-1.8715 -2.8659,-1.6948 -2.9666,-1.5116 -3.0557,-1.3224 -3.132698,-1.1278 -3.1973,-0.9289 -3.24939,-0.7263 -3.28855,-0.5209 -3.31475,-0.3133 -3.3279,-0.1046 -3.3279,0.1046 -3.31475,0.3133 -3.28856,0.5209 -3.2494,0.7263 -3.19731,0.9289 -3.1327,1.1278 -3.0557,1.3224 -2.9666,1.5116 -2.8659,1.6948 -2.7538,1.8715 -2.6309,2.0407 -2.4975,2.201897 -2.3543,2.3543 -2.2019,2.4975 -2.0407,2.6309 -1.8715,2.7538 -1.6948,2.8659 -1.5116,2.9666 -1.3224,3.0557 -1.1278,3.1327 -0.9289,3.19731 -0.7263,3.2494 -0.5209,3.28855 -0.3133,3.31475 -0.1046,3.3279 0.1046,3.3279 0.3133,3.31475 0.5209,3.28855 0.7263,3.2494 0.9289,3.1973 1.1278,3.1327 1.3224,3.0557 1.5116,2.9666 1.6948,2.8659 1.8715,2.7538 2.0407,2.6309 2.2019,2.4975 2.3543,2.3543 2.4975,2.2019 2.6309,2.0407 2.7538,1.8715 2.8659,1.6948 2.9666,1.5116 3.0557,1.3224 3.1327,1.1278 3.19731,0.9289 0.6806,0.1521 v 9.513 h 25 z m -25.7962,-85.15311 7.26821,-13.953497 0.012,-0.002 3.00206,-0.2838 3.01393,-0.0947 3.01393,0.0947 3.00206,0.2838 2.9783,0.4717 2.476,0.5535 -7.35187,16.775697 z m -10.04761,-0.2663 1.0843,-8.570897 1.8221,-0.9284 2.7674,-1.1976 2.83721,-1.0214 2.8957,-0.8413 0.9186,-0.2053 -6.77591,13.008297 -2.7381,1.6871 z m 33.40472,15.724 -2.64768,-9.165 7.92947,-18.093697 2.32729,0.8378 2.767408,1.1976 2.6868,1.369 2.5955,1.535 2.494,1.694897 2.1977,1.7047 -0.7004,14.8612 -1.8325,1.2584 -16.506198,2.8682 z m -40.49302,-18.9036 2.2184,-1.7208 1.5951,-1.083997 -0.5216,4.123597 z m -15.2186,22.27921 1.0214,-2.83721 1.1976,-2.7674 1.369,-2.6868 1.535,-2.5955 1.6949,-2.494 1.8482,-2.3826 1.9941,-2.2619 1.2645,-1.2645 7.2955,2.923 3.7888,2.6017 -0.2347,4.9863 -23.3035,11.31291 -0.21,0.0104 z m 79.366608,-7.44271 0.5336,-11.3237 0.741,0.741 1.9941,2.2619 1.8482,2.3826 1.6949,2.494 1.535,2.5955 1.369,2.6868 1.1976,2.7674 0.9189,2.55241 z m -41.352558,14.76474 -6.00754,-5.09333 -5.26721,-10.16981 0.268,-5.6938 2.7274,-1.6805 19.61536,4.3314 2.6091,9.0317 -9.37477,10.62021 z m -33.48475,-2.79723 19.3073,-9.37291 3.9185,7.56581 -12.425,7.12917 z m 69.542608,12.23668 2.1209,-19.91399 1.1886,-0.8162 12.3938,7.49761 -13.5692,13.47594 z m -4.2505,-1.39359 -9.418198,-15.20279 11.628898,-2.02071 -1.8383,17.26045 z m -22.493638,0.12236 -1.75546,-4.16291 9.47357,-10.73214 0.94893,0.0493 9.502798,15.33933 -2.926598,0.73032 z m -29.74047,-2.32679 12.60241,-7.231 3.8901,3.29818 -8.03551,7.90399 -7.646,1.29221 z m 75.257408,-7.04555 0.4275,2.6989 0.2838,3.00206 0.0947,3.01393 -0.0121,0.38647 -12.7736,2.79604 z m -83.061108,19.46319 -12.1075,-11.55748 0.0693,-2.20475 0.2838,-3.00206 0.3522,-2.22386 1.177,-0.0584 14.0251,6.91086 1.0573,6.86142 -3.8211,6.11012 z m 19.3068,9.4524 -0.0875,-15.19835 8.60409,-8.46317 4.15956,1.2249 2.17676,5.16198 -0.73287,21.88104 -5.23007,3.6463 z m 35.72641,6.7847 -0.074,-21.52335 4.046198,-1.00972 2.1216,0.21042 -5.962898,22.35975 z m 17.458298,-20.01685 11.1375,-2.43793 -0.1404,1.48537 -0.4717,2.9783 -0.6578,2.94281 -0.5504,1.8944 -3.8002,0.004 z m -35.040708,17.19055 0.65123,-19.44397 12.85818,1.03238 0.0702,20.43119 z m -48.0757,-12.222 -0.6578,-2.94281 -0.4717,-2.9783 -0.0996,-1.05331 6.7401,6.43382 -5.1729,1.7043 z m 75.528508,-5.91233 1.4368,0.16383 1.1429,0.93288 6.7829,8.44282 -11.4129,9.5901 -3.7449,2.6011 z m -60.225008,7.27883 3.4878,-5.57707 7.0617,-1.19346 0.0659,11.46533 z m -10.8742,9.8206 -1.369,-2.6868 -1.1976,-2.7674 -0.2767,-0.7688 7.3099,-2.4084 0.4232,0.3415 -4.6691,8.663 z m 3.6001,5.5667 -0.3702,-0.4772 -0.5617,-0.8265 5.8055,-10.7715 13.9185,6.1556 7.27221,6.7509 -14.57351,4.7978 z m 71.924908,-3.7536 8.451,-7.1012 2.6454,-0.003 -1.127,2.6043 -1.369,2.6868 -1.233,2.0848 z m -36.476218,22.968 -1.36322,-0.1289 -0.86768,-16.1379 5.26182,-3.6684 16.733,2.4885 3.091198,0.8751 0.8978,0.6217 -9.876198,14.7767 -1.8685,0.4177 -2.9783,0.4717 -3.00206,0.2838 -3.01393,0.0947 z m 28.605718,-16.0894 -0.4345,-0.521 3.6382,-2.527 9.3402,0.3445 -1.1511,1.4839 -1.9941,2.2619 -2.1323,2.1323 -2.2619,1.9941 -0.1151,0.0893 z m -34.586078,15.3339 -2.94282,-0.6578 -2.8957,-0.8413 -2.83721,-1.0214 -2.7674,-1.1976 -2.6868,-1.369 -2.5955,-1.535 -0.637,-0.4329 0.7674,-2.0188 16.39464,-5.3973 0.78301,14.5634 z m 33.741578,-10.3682 2.511,2.7005 -1.5386,1.0456 -2.5955,1.535 -0.7127,0.3632 z m -55.295008,0.2408 0.9102,0.4458 -0.0764,0.2009 z m 47.86641,7.2489 -0.2356,0.5692 -0.1908,0.0687 z"
         stroke="#000000"
         fill="lightgray"
         stroke-width="0.5"
         id="path1-8"
         style="fill:#ffffff" />
    </g>
  </g>
  <metadata
     id="metadata1">
    <rdf:RDF>
      <cc:Work
         rdf:about="">
        <dc:title>OpenSCAD Model</dc:title>
      </cc:Work>
    </rdf:RDF>
  </metadata>
</svg>
